<?xml version="1.0" encoding="iso-8859-1"?>
<!-- Uploaded to: SVG Repo, www.svgrepo.com, Generator: SVG Repo Mixer Tools -->
<svg fill="#000000" height="800px" width="800px" version="1.1" id="Layer_1" xmlns="http://www.w3.org/2000/svg" xmlns:xlink="http://www.w3.org/1999/xlink" 
	 viewBox="0 0 512 512" xml:space="preserve">
<g>
	<g>
		<path d="M503.983,350.597h-36.747L434.978,92.533c-0.502-4.012-3.912-7.022-7.955-7.022H324.409c-4.043,0-7.453,3.01-7.955,7.022
			l-32.258,258.064h-9.654l-71.73-107.595c-1.999-2.998-5.875-4.304-9.281-3.133c-3.199,1.1-5.406,4.198-5.406,7.58v101.79
			l-70.825-106.236c-1.999-2.999-5.874-4.304-9.281-3.133c-3.197,1.101-5.404,4.198-5.404,7.58v97.856L31.71,242.887
			c-2.035-2.942-5.894-4.188-9.265-2.995c-3.166,1.119-5.342,4.199-5.342,7.557V290.2c0,4.428,3.588,8.017,8.017,8.017
			c4.428,0,8.017-3.588,8.017-8.017v-17.087l53.642,77.484H35.984v-26.189c0-4.428-3.588-8.017-8.017-8.017
			s-8.017,3.588-8.017,8.017v26.189H8.017c-4.428,0-8.017,3.588-8.017,8.017v145.37C0,508.412,3.588,512,8.017,512h495.967
			c4.428,0,8.017-3.588,8.017-8.017v-145.37C512,354.185,508.412,350.597,503.983,350.597z M331.486,101.545h88.459l1.203,9.62
			h-90.865L331.486,101.545z M328.28,127.198h94.873l6.547,52.376H321.733L328.28,127.198z M319.729,195.608h111.975l1.203,9.62
			h-114.38L319.729,195.608z M316.522,221.261H434.91l7.616,60.927h-133.62L316.522,221.261z M306.902,298.221H444.53l1.203,9.62
			H305.699L306.902,298.221z M204.159,273.926l51.113,76.671h-51.113V273.926z M118.647,273.926l51.115,76.671h-51.115V273.926z
			 M495.967,495.967H16.033V366.63h368.234c4.428,0,8.017-3.588,8.017-8.017c0-4.428-3.588-8.017-8.017-8.017h-83.912l3.34-26.722
			h144.042l3.34,26.722h-32.606c-4.428,0-8.017,3.588-8.017,8.017c0,4.428,3.588,8.017,8.017,8.017h77.495V495.967z"/>
	</g>
</g>
<g>
	<g>
		<path d="M76.426,376.251H42.221c-4.428,0-8.017,3.588-8.017,8.017v34.205c0,4.428,3.588,8.017,8.017,8.017h34.205
			c4.428,0,8.017-3.588,8.017-8.017v-34.205C84.443,379.839,80.854,376.251,76.426,376.251z M68.409,410.455H50.238v-18.171h18.171
			V410.455z"/>
	</g>
</g>
<g>
	<g>
		<path d="M469.779,376.251h-34.205c-4.428,0-8.017,3.588-8.017,8.017v34.205c0,4.428,3.588,8.017,8.017,8.017h34.205
			c4.428,0,8.017-3.588,8.017-8.017v-34.205C477.795,379.839,474.207,376.251,469.779,376.251z M461.762,410.455h-18.171v-18.171
			h18.171V410.455z"/>
	</g>
</g>
<g>
	<g>
		<path d="M273.102,376.251h-34.205c-4.428,0-8.017,3.588-8.017,8.017v34.205c0,4.428,3.588,8.017,8.017,8.017h34.205
			c4.428,0,8.017-3.588,8.017-8.017v-34.205C281.119,379.839,277.531,376.251,273.102,376.251z M265.086,410.455h-18.171v-18.171
			h18.171V410.455z"/>
	</g>
</g>
<g>
	<g>
		<path d="M375.716,376.251h-34.205c-4.428,0-8.017,3.588-8.017,8.017v34.205c0,4.428,3.588,8.017,8.017,8.017h34.205
			c4.428,0,8.017-3.588,8.017-8.017v-34.205C383.733,379.839,380.145,376.251,375.716,376.251z M367.699,410.455h-18.171v-18.171
			h18.171V410.455z"/>
	</g>
</g>
<g>
	<g>
		<path d="M170.489,376.251h-34.205c-4.428,0-8.017,3.588-8.017,8.017v34.205c0,4.428,3.588,8.017,8.017,8.017h34.205
			c4.428,0,8.017-3.588,8.017-8.017v-34.205C178.505,379.839,174.917,376.251,170.489,376.251z M162.472,410.455h-18.171v-18.171
			h18.171V410.455z"/>
	</g>
</g>
<g>
	<g>
		<path d="M76.426,436.109H42.221c-4.428,0-8.017,3.588-8.017,8.017v34.205c0,4.428,3.588,8.017,8.017,8.017h34.205
			c4.428,0,8.017-3.588,8.017-8.017v-34.205C84.443,439.697,80.854,436.109,76.426,436.109z M68.409,470.313H50.238v-18.171h18.171
			V470.313z"/>
	</g>
</g>
<g>
	<g>
		<path d="M469.779,436.109h-34.205c-4.428,0-8.017,3.588-8.017,8.017v34.205c0,4.428,3.588,8.017,8.017,8.017h34.205
			c4.428,0,8.017-3.588,8.017-8.017v-34.205C477.795,439.697,474.207,436.109,469.779,436.109z M461.762,470.313h-18.171v-18.171
			h18.171V470.313z"/>
	</g>
</g>
<g>
	<g>
		<path d="M273.102,436.109h-34.205c-4.428,0-8.017,3.588-8.017,8.017v34.205c0,4.428,3.588,8.017,8.017,8.017h34.205
			c4.428,0,8.017-3.588,8.017-8.017v-34.205C281.119,439.697,277.531,436.109,273.102,436.109z M265.086,470.313h-18.171v-18.171
			h18.171V470.313z"/>
	</g>
</g>
<g>
	<g>
		<path d="M375.716,436.109h-34.205c-4.428,0-8.017,3.588-8.017,8.017v34.205c0,4.428,3.588,8.017,8.017,8.017h34.205
			c4.428,0,8.017-3.588,8.017-8.017v-34.205C383.733,439.697,380.145,436.109,375.716,436.109z M367.699,470.313h-18.171v-18.171
			h18.171V470.313z"/>
	</g>
</g>
<g>
	<g>
		<path d="M170.489,436.109h-34.205c-4.428,0-8.017,3.588-8.017,8.017v34.205c0,4.428,3.588,8.017,8.017,8.017h34.205
			c4.428,0,8.017-3.588,8.017-8.017v-34.205C178.505,439.697,174.917,436.109,170.489,436.109z M162.472,470.313h-18.171v-18.171
			h18.171V470.313z"/>
	</g>
</g>
<g>
	<g>
		<path d="M401.37,17.102c-0.609,0-1.217,0.022-1.823,0.067C396.213,7.202,386.79,0,375.716,0s-20.497,7.202-23.83,17.17
			c-0.606-0.045-1.214-0.067-1.824-0.067c-13.851,0-25.119,11.268-25.119,25.119c0,13.851,11.268,25.119,25.119,25.119h51.307
			c13.851,0,25.119-11.268,25.119-25.119C426.489,28.371,415.22,17.102,401.37,17.102z M401.37,51.307h-51.307
			c-5.01,0-9.086-4.076-9.086-9.086c0-5.01,4.076-9.086,9.086-9.086c1.641,0,3.199,0.434,4.634,1.29
			c2.651,1.583,5.978,1.501,8.548-0.208c2.572-1.711,3.932-4.745,3.497-7.804c-0.076-0.533-0.111-0.946-0.111-1.294
			c0-5.01,4.076-9.086,9.086-9.086c5.01,0,9.086,4.076,9.086,9.086c0,0.348-0.035,0.761-0.111,1.294
			c-0.434,3.058,0.926,6.093,3.497,7.804c2.572,1.71,5.897,1.789,8.548,0.208c1.434-0.856,2.993-1.29,4.634-1.29
			c5.01,0,9.086,4.076,9.086,9.086C410.455,47.231,406.379,51.307,401.37,51.307z"/>
	</g>
</g>
<g>
	<g>
		<path d="M238.898,68.409c-0.609,0-1.217,0.022-1.824,0.067c-3.333-9.967-12.756-17.17-23.83-17.17s-20.497,7.202-23.83,17.17
			c-0.606-0.045-1.214-0.067-1.824-0.067c-13.851,0-25.119,11.268-25.119,25.119s11.268,25.119,25.119,25.119h51.307
			c13.851,0,25.119-11.268,25.119-25.119S252.748,68.409,238.898,68.409z M238.898,102.614h-51.307c-5.01,0-9.086-4.076-9.086-9.086
			s4.076-9.086,9.086-9.086c1.641,0,3.199,0.434,4.634,1.29c2.65,1.583,5.979,1.501,8.548-0.208
			c2.572-1.711,3.932-4.745,3.497-7.804c-0.076-0.533-0.111-0.946-0.111-1.294c0-5.01,4.076-9.086,9.086-9.086
			s9.086,4.076,9.086,9.086c0,0.348-0.035,0.761-0.111,1.294c-0.434,3.058,0.926,6.093,3.497,7.804
			c2.572,1.71,5.898,1.79,8.548,0.208c1.434-0.856,2.993-1.29,4.634-1.29c5.01,0,9.086,4.076,9.086,9.086
			S243.908,102.614,238.898,102.614z"/>
	</g>
</g>
<g>
	<g>
		<path d="M84.977,111.165c-0.609,0-1.217,0.022-1.824,0.067c-3.333-9.967-12.756-17.17-23.83-17.17s-20.497,7.202-23.83,17.17
			c-0.606-0.045-1.214-0.067-1.823-0.067c-13.851,0-25.119,11.268-25.119,25.119s11.268,25.119,25.119,25.119h51.307
			c13.851,0,25.119-11.268,25.119-25.119C110.096,122.433,98.828,111.165,84.977,111.165z M84.977,145.37H33.67
			c-5.01,0-9.086-4.076-9.086-9.086s4.076-9.086,9.086-9.086c1.641,0,3.199,0.434,4.634,1.29c2.651,1.583,5.978,1.501,8.548-0.208
			c2.572-1.711,3.932-4.745,3.497-7.804c-0.076-0.533-0.111-0.946-0.111-1.294c0-5.01,4.076-9.086,9.086-9.086
			c5.01,0,9.086,4.076,9.086,9.086c0,0.348-0.035,0.761-0.111,1.294c-0.434,3.058,0.926,6.093,3.497,7.804
			c2.572,1.71,5.897,1.79,8.548,0.208c1.434-0.856,2.993-1.29,4.634-1.29c5.01,0,9.086,4.076,9.086,9.086
			S89.987,145.37,84.977,145.37z"/>
	</g>
</g>
</svg>